<?xml version="1.0" encoding="UTF-8"?><svg id="Capa_2" xmlns="http://www.w3.org/2000/svg" viewBox="0 0 304.16 211.16"><defs><style>.cls-1{fill:#fff;}.cls-2{fill:#1f140f;}</style></defs><g id="Capa_1-2"><g><polygon class="cls-2" points="2.5 36.29 301.59 2.8 301.66 174.87 2.56 208.36 2.5 36.29"/><path class="cls-1" d="M299.09,5.59l.06,167.04L5.06,205.57l-.06-167.04L299.09,5.59m5-5.59l-5.55,.62L4.45,33.56l-4.45,.5v4.47S.06,205.57,.06,205.57v5.59s5.56-.62,5.56-.62l294.09-32.93,4.45-.5v-4.47s-.06-167.04-.06-167.04V0h0Z"/></g><polygon class="cls-1" points="18.61 175.9 243.36 151.73 243.36 165.67 18.61 189.85 18.61 175.9"/><g><path class="cls-2" d="M33.1,175.7l.66-.07v1.31s-.66,.07-.66,.07l-2.94,.32-.03,9.14v.65s-1.31,.14-1.31,.14v-.65s.04-9.14,.04-9.14l-2.97,.32-.66,.07v-1.31s.66-.07,.66-.07l2.97-.32,1.31-.14,2.94-.32Z"/><path class="cls-2" d="M38.78,175.09l1.31-.14v.65s-.04,9.8-.04,9.8v.65s-1.31,.14-1.31,.14v-.65s.04-9.8,.04-9.8v-.65Z"/><path class="cls-2" d="M54.1,173.43v1.31s-.66,.07-.66,.07l-5.91,.64v3.59s4.12-.45,4.12-.45l.66-.07v1.31s-.66,.07-.66,.07l-4.13,.45v3.59s5.89-.64,5.89-.64l.66-.07v1.31s-.66,.07-.66,.07l-6.56,.71-.66,.07v-.65s.02-4.25,.02-4.25v-1.31s.02-4.25,.02-4.25v-.65s.66-.07,.66-.07l6.56-.71,.66-.07Z"/><path class="cls-2" d="M61.28,183.75l-1.31,.14v-.65s.04-9.8,.04-9.8v-.65s1-.11,1-.11l.2,.26,5.65,7.49,.04-7.73v-.65s1.31-.14,1.31-.14v.65s-.05,9.8-.05,9.8v.65s-1,.11-1,.11l-.2-.26-5.65-7.48-.03,7.72v.65Z"/><path class="cls-2" d="M74.74,182.3v-.65s.04-9.8,.04-9.8v-.65s.66-.07,.66-.07l3.64-.39h.03c1.21-.02,2.23,.44,3.05,1.35,.89,1,1.27,2.25,1.13,3.75,.12,1.42-.26,2.74-1.11,3.94-.84,1.14-1.87,1.82-3.11,2.07h-.03s-.03,0-.03,0l-3.61,.39-.66,.07Zm4.24-1.76c.82-.16,1.52-.63,2.09-1.38,.7-.93,1.01-2,.91-3.18v-.05c.08-1.01-.13-1.89-.65-2.64-.58-.84-1.35-1.25-2.32-1.23l-2.92,.32-.03,8.49,2.92-.32Z"/><path class="cls-2" d="M88.94,180.76l-1.43,.15,.4-.96,4.3-10.26,.18-.41,.85-.09,.18,.37,4.23,9.34,.39,.87-1.43,.15-.18-.37-3.63-8.01-3.69,8.8-.18,.41Z"/><path class="cls-2" d="M113.29,178.13v-.65s.04-9.8,.04-9.8v-.65s.66-.07,.66-.07l3.64-.39h.03c1.21-.02,2.23,.44,3.05,1.35,.89,1,1.27,2.25,1.13,3.75,.12,1.42-.26,2.74-1.11,3.94-.84,1.14-1.87,1.82-3.11,2.07h-.03s-.03,0-.03,0l-3.61,.39-.66,.07Zm4.24-1.76c.82-.16,1.52-.63,2.09-1.38,.7-.93,1.01-2,.91-3.18v-.05c.08-1.01-.13-1.89-.65-2.64-.58-.84-1.35-1.25-2.32-1.23l-2.92,.32-.03,8.49,2.92-.32Z"/><path class="cls-2" d="M135.65,164.61v1.31s-.66,.07-.66,.07l-5.91,.64v3.59s4.12-.45,4.12-.45l.66-.07v1.31s-.66,.07-.66,.07l-4.13,.45v3.59s5.89-.64,5.89-.64l.66-.07v1.31s-.66,.07-.66,.07l-6.56,.71-.66,.07v-.65s.02-4.25,.02-4.25v-1.31s.02-4.25,.02-4.25v-.65s.66-.07,.66-.07l6.56-.71,.66-.07Z"/><path class="cls-2" d="M151.89,162.86l1.31-.14v.65s-.04,9.14-.04,9.14l4.59-.5,.66-.07v1.31s-.66,.07-.66,.07l-5.25,.57-.66,.07v-.65s.04-9.8,.04-9.8v-.65Z"/><path class="cls-2" d="M163.48,161.61l1.31-.14v.65s-.04,9.8-.04,9.8v.65s-1.31,.14-1.31,.14v-.65s.04-9.8,.04-9.8v-.65Z"/><path class="cls-2" d="M179.02,168.67c-.23,.42-.55,.82-.96,1.21-.99,.93-2.07,1.46-3.25,1.59-1.31,.13-2.44-.26-3.39-1.18-1-.98-1.5-2.26-1.49-3.84s.52-2.98,1.54-4.18c.94-1.12,2.07-1.76,3.39-1.9,.73-.08,1.46,.02,2.18,.3,.94,.38,1.6,.93,1.99,1.65l-1.18,.71c-.13-.25-.33-.48-.6-.7-.7-.53-1.5-.75-2.39-.66-.92,.11-1.72,.56-2.42,1.36-.79,.93-1.19,2.03-1.19,3.28,0,1.08,.3,2,.92,2.76,.71,.85,1.59,1.21,2.65,1.1,.45-.05,.9-.19,1.35-.42,.79-.41,1.36-.95,1.71-1.6l1.15,.53Z"/><path class="cls-2" d="M185.57,160.75c.96-1.13,2.09-1.76,3.4-1.9,1.31-.13,2.45,.26,3.41,1.18,1,.98,1.5,2.26,1.49,3.84s-.52,2.97-1.54,4.18c-.96,1.13-2.09,1.76-3.4,1.9-1.31,.13-2.45-.26-3.41-1.18-1-.98-1.5-2.26-1.5-3.84s.52-2.97,1.54-4.18Zm.71,6.81c.71,.84,1.59,1.2,2.65,1.08,.92-.11,1.72-.56,2.42-1.35,.8-.94,1.2-2.03,1.21-3.28,0-1.09-.31-2.01-.94-2.77-.71-.84-1.59-1.2-2.65-1.08-.92,.11-1.72,.56-2.42,1.36-.8,.93-1.2,2.03-1.21,3.28,0,1.09,.31,2.01,.94,2.77Z"/><path class="cls-2" d="M207.94,167.06l.26,.8-1.38,.15-.13-.46c-.36-1.15-.68-2.02-.97-2.62-.35-.69-.79-1.21-1.32-1.55l-3.3,.36-.02,4.25v.65s-1.31,.14-1.31,.14v-.65s.02-4.25,.02-4.25v-.65s.04-4.88,.04-4.88v-.65s.66-.07,.66-.07l4.15-.46c.85-.09,1.6,.09,2.23,.54,.76,.54,1.14,1.28,1.14,2.21,0,.35-.07,.7-.2,1.05-.31,.85-.9,1.51-1.76,1.97,.63,.67,1.27,2.05,1.9,4.14Zm-5.41-4.78l2.1-.23c.4-.04,.78-.18,1.13-.42,.61-.42,.92-.94,.92-1.59,0-.37-.12-.7-.36-.99-.4-.48-.97-.68-1.7-.6l-3.51,.38v3.61s1.43-.16,1.43-.16h-.02Z"/><path class="cls-2" d="M221.79,155.3v1.31s-.66,.07-.66,.07l-5.91,.64v3.59s4.12-.45,4.12-.45l.66-.07v1.31s-.66,.07-.66,.07l-4.13,.45v3.59s5.89-.64,5.89-.64l.66-.07v1.31s-.66,.07-.66,.07l-6.56,.71-.66,.07v-.65s.02-4.25,.02-4.25v-1.31s.02-4.25,.02-4.25v-.65s.66-.07,.66-.07l6.56-.71,.66-.07Z"/><path class="cls-2" d="M232.97,157.19c0-.38-.13-.71-.41-.98-.47-.46-1.11-.65-1.92-.56-.47,.05-.91,.21-1.33,.47-.67,.42-1,.95-1.01,1.58,0,.11,.03,.22,.08,.33,.19,.34,.8,.65,1.85,.94,1.3,.37,2.08,.6,2.34,.69,1.32,.52,1.98,1.27,1.98,2.25-.01,.7-.31,1.37-.89,2.02-.8,.87-1.82,1.37-3.06,1.51-1.07,.12-1.99-.08-2.77-.6-.78-.54-1.16-1.23-1.16-2.08l1.31-.14c0,.38,.17,.71,.49,.99,.53,.44,1.24,.62,2.13,.52,.56-.06,1.08-.24,1.56-.53,.71-.44,1.07-.95,1.07-1.55,0-.12-.03-.24-.1-.35-.19-.35-.81-.68-1.87-.97-1.29-.36-2.06-.59-2.31-.68-1.32-.51-1.98-1.25-1.98-2.22,0-.71,.27-1.38,.79-2.01,.72-.86,1.68-1.36,2.86-1.48,.94-.1,1.76,.08,2.46,.55,.78,.54,1.18,1.26,1.17,2.16l-1.31,.14Z"/></g><g><path class="cls-1" d="M67.55,43.7c14.95-1.86,26.06,9.47,25.93,24.35,.12,14.78-10.98,28.66-25.93,30.11l-48.46,5.38V49.08l48.46-5.38Zm-3.97,17.71l-23.26,2.58v19.94l23.26-2.58c5.51-.61,8.63-5.46,8.63-10.93s-3.12-9.62-8.63-9.01Z"/><path class="cls-1" d="M152.25,34.25c11.23-1.37,20.75,7.02,20.59,18.3,0,4.09-1.09,7.94-3.28,11.51-2.15,3.52-5.02,6.35-8.59,8.41l11.87,13.96-22.61,2.51-10.25-12.15-18.96,2.11v13.29l-21.23,2.36V40.08l52.48-5.83Zm-31.24,19.4v9.28l25.89-2.88c1.3-.14,2.39-.71,3.28-1.7,.93-1.04,1.38-2.18,1.38-3.44,0-2.59-2.07-4.43-4.66-4.14l-25.89,2.88Z"/><path class="cls-1" d="M200.65,28.84v54.47l-21.23,2.36V31.2l21.23-2.36Z"/><path class="cls-1" d="M265.04,21.69l21.27-2.36v54.47l-23.91,2.65-29.26-30.02v33.27l-21.23,2.36V27.59l29.22-3.24,23.91,26.2V21.69Z"/><path class="cls-1" d="M40.32,145.51v18.6l-21.23,2.36v-54.47l21.23-2.36v18.6l9.28-1.03,19.98-20.82,27.88-3.1-28.24,30.37,28.24,24.1-27.88,3.1-19.98-16.38-9.28,1.03Z"/><path class="cls-1" d="M100.42,103.05l63.74-7.08v13.94l-42.51,4.72v6.97l42.51-4.72v12.6l-42.51,4.72v6.97l42.51-4.72v13.98l-63.74,7.08v-54.47Z"/><path class="cls-1" d="M172.97,112.26v-17.26l70.39-7.82v17.26l-37.16,24.03,37.16-4.13v17.31l-70.39,7.82v-17.31l35.86-23.88-35.86,3.98Z"/></g></g></svg>